<svg width="24" height="30" viewBox="0 0 24 30" fill="none" xmlns="http://www.w3.org/2000/svg">
<path fill-rule="evenodd" clip-rule="evenodd" d="M22.8326 1.79365H7.63245C6.69867 1.75797 5.77306 1.97595 4.95325 2.42441C4.13344 2.87288 3.45028 3.53508 2.97669 4.34064C2.54695 5.20579 2.38062 6.17811 2.49866 7.13686C2.61671 8.09562 3.01399 8.99858 3.64075 9.73365L12.4479 20.3006C12.6767 20.5803 12.7853 20.9393 12.7496 21.2989C12.714 21.6585 12.5367 21.9893 12.2575 22.2186L3.3097 29.6876L2.17249 28.4616L10.6798 21.0396L2.23548 10.8976C1.40225 9.91884 0.86732 8.72159 0.693973 7.4479C0.520627 6.17421 0.716109 4.87753 1.25745 3.71165C1.82964 2.56866 2.71834 1.61415 3.81751 0.961737C4.91668 0.309325 6.18023 -0.0135185 7.45765 0.0316371L22.8307 0.0156459C23.0664 0.0140349 23.2935 0.105596 23.462 0.270407C23.6306 0.435217 23.7269 0.659924 23.7306 0.895636V0.911642C23.7272 1.14753 23.6306 1.3725 23.462 1.53753C23.2935 1.70255 23.0666 1.79425 22.8307 1.79264" fill="#8989A2"/>
</svg>
