<svg width="30" height="30" viewBox="0 0 30 30" fill="none" xmlns="http://www.w3.org/2000/svg">
<path d="M24.8679 29.5406H5.69165C4.38402 29.5366 3.13142 29.0154 2.20679 28.0908C1.28215 27.1662 0.760548 25.9132 0.756592 24.6056V5.42961C0.760812 4.12216 1.28218 2.86947 2.20679 1.94505C3.13139 1.02063 4.3842 0.499561 5.69165 0.495605H24.8679C26.1753 0.499562 27.4278 1.02067 28.3523 1.94511C29.2767 2.86956 29.798 4.12225 29.802 5.42961V24.6056C29.8029 25.2538 29.6756 25.8958 29.428 26.4949C29.1803 27.0939 28.817 27.6382 28.3586 28.0965C27.9003 28.5549 27.3561 28.9183 26.7571 29.1659C26.158 29.4135 25.5161 29.5405 24.8679 29.5396" fill="#8989A2"/>
</svg>
